<svg xmlns="http://www.w3.org/2000/svg" width="100" height="100" viewBox="0 0 100 100" version="1.1">
	<path d="M 60.431 9.761 C 58.787 11.267, 56.838 13.960, 56.102 15.744 C 53.018 23.213, 61.352 26.843, 69.256 21.472 C 74.935 17.613, 75.485 11.675, 70.468 8.387 C 66.842 6.011, 65.255 7.754, 68.394 10.665 C 72.116 14.115, 71.812 16.034, 67.027 19.308 C 64.131 21.290, 59.362 21.544, 58.718 19.750 C 58.128 18.104, 59.643 15.145, 62.816 11.743 C 66.466 7.829, 64.408 6.118, 60.431 9.761 M 12.561 31.902 C 12.254 32.398, 13.563 33.725, 15.469 34.849 C 19.891 37.458, 20.976 41.216, 18.330 44.760 C 15.172 48.990, 13.122 49.823, 11.441 47.559 C 9.593 45.070, 9.623 42.247, 11.535 38.579 C 12.537 36.658, 12.721 35.321, 12.072 34.672 C 10.374 32.974, 8.143 35.863, 7.418 40.696 C 6.467 47.042, 8.844 52, 12.838 52 C 17.579 52, 23 45.847, 23 40.466 C 23 35.833, 14.461 28.828, 12.561 31.902 M 66.452 41.078 C 66.073 41.690, 67.120 43.430, 68.778 44.944 C 73.299 49.074, 75.314 53.626, 74.687 58.296 C 73.910 64.090, 67.836 69.937, 60.007 72.425 C 54.238 74.259, 53.701 74.271, 48.646 72.678 C 43.331 71.002, 42.274 69.899, 40.014 63.669 C 38.896 60.583, 36.302 60.531, 36.820 63.604 C 37.570 68.053, 40.789 72.583, 44.563 74.500 C 48.897 76.702, 58.789 77.212, 61.136 75.355 C 61.886 74.761, 63.676 73.996, 65.114 73.653 C 68.286 72.897, 75.712 65.889, 77.039 62.399 C 78.689 58.058, 78.118 52.877, 75.496 48.403 C 72.606 43.472, 67.519 39.351, 66.452 41.078" stroke="none" fill="#000000" fill-rule="evenodd"/>
</svg>